<svg width="475" height="222" viewBox="0 0 475 222" fill="none" xmlns="http://www.w3.org/2000/svg">
<path d="M98.8921 39.37V29.9069H164.962V39.37H137.261V118H126.593V39.37H98.8921ZM197.309 119.376C191.344 119.376 186.111 117.957 181.608 115.118C177.135 112.279 173.636 108.307 171.113 103.203C168.618 98.0988 167.371 92.1341 167.371 85.3092C167.371 78.4269 168.618 72.4193 171.113 67.2862C173.636 62.1532 177.135 58.1672 181.608 55.3283C186.111 52.4894 191.344 51.0699 197.309 51.0699C203.273 51.0699 208.492 52.4894 212.966 55.3283C217.468 58.1672 220.966 62.1532 223.461 67.2862C225.985 72.4193 227.247 78.4269 227.247 85.3092C227.247 92.1341 225.985 98.0988 223.461 103.203C220.966 108.307 217.468 112.279 212.966 115.118C208.492 117.957 203.273 119.376 197.309 119.376ZM197.309 110.257C201.839 110.257 205.567 109.096 208.492 106.773C211.417 104.451 213.582 101.397 214.987 97.6113C216.393 93.826 217.095 89.7253 217.095 85.3092C217.095 80.8931 216.393 76.7781 214.987 72.9641C213.582 69.1502 211.417 66.0675 208.492 63.7161C205.567 61.3646 201.839 60.1889 197.309 60.1889C192.778 60.1889 189.05 61.3646 186.125 63.7161C183.2 66.0675 181.035 69.1502 179.63 72.9641C178.225 76.7781 177.522 80.8931 177.522 85.3092C177.522 89.7253 178.225 93.826 179.63 97.6113C181.035 101.397 183.2 104.451 186.125 106.773C189.05 109.096 192.778 110.257 197.309 110.257ZM267.691 119.376C262.185 119.376 257.324 117.986 253.109 115.204C248.893 112.394 245.596 108.437 243.216 103.332C240.835 98.1991 239.645 92.1341 239.645 85.1371C239.645 78.1975 240.835 72.1755 243.216 67.0712C245.596 61.9668 248.908 58.0239 253.152 55.2423C257.396 52.4607 262.3 51.0699 267.863 51.0699C272.164 51.0699 275.562 51.7868 278.057 53.2206C280.581 54.6257 282.502 56.2316 283.821 58.0382C285.169 59.8161 286.215 61.2786 286.961 62.4256H287.821V29.9069H297.973V118H288.165V107.849H286.961C286.215 109.053 285.154 110.573 283.778 112.408C282.401 114.215 280.437 115.835 277.885 117.269C275.333 118.674 271.935 119.376 267.691 119.376ZM269.067 110.257C273.139 110.257 276.58 109.196 279.39 107.074C282.201 104.924 284.337 101.956 285.8 98.1705C287.262 94.3565 287.993 89.9547 287.993 84.9651C287.993 80.0328 287.276 75.717 285.843 72.0178C284.409 68.2899 282.287 65.3936 279.477 63.3289C276.666 61.2356 273.196 60.1889 269.067 60.1889C264.766 60.1889 261.181 61.2929 258.314 63.501C255.475 65.6804 253.338 68.6484 251.904 72.4049C250.499 76.1328 249.797 80.3196 249.797 84.9651C249.797 89.668 250.514 93.9407 251.947 97.7833C253.41 101.597 255.561 104.637 258.4 106.902C261.267 109.139 264.823 110.257 269.067 110.257ZM344.815 119.376C338.85 119.376 333.617 117.957 329.115 115.118C324.641 112.279 321.143 108.307 318.619 103.203C316.125 98.0988 314.877 92.1341 314.877 85.3092C314.877 78.4269 316.125 72.4193 318.619 67.2862C321.143 62.1532 324.641 58.1672 329.115 55.3283C333.617 52.4894 338.85 51.0699 344.815 51.0699C350.78 51.0699 355.999 52.4894 360.472 55.3283C364.974 58.1672 368.473 62.1532 370.968 67.2862C373.491 72.4193 374.753 78.4269 374.753 85.3092C374.753 92.1341 373.491 98.0988 370.968 103.203C368.473 108.307 364.974 112.279 360.472 115.118C355.999 117.957 350.78 119.376 344.815 119.376ZM344.815 110.257C349.346 110.257 353.074 109.096 355.999 106.773C358.924 104.451 361.089 101.397 362.494 97.6113C363.899 93.826 364.602 89.7253 364.602 85.3092C364.602 80.8931 363.899 76.7781 362.494 72.9641C361.089 69.1502 358.924 66.0675 355.999 63.7161C353.074 61.3646 349.346 60.1889 344.815 60.1889C340.284 60.1889 336.556 61.3646 333.631 63.7161C330.706 66.0675 328.541 69.1502 327.136 72.9641C325.731 76.7781 325.029 80.8931 325.029 85.3092C325.029 89.7253 325.731 93.826 327.136 97.6113C328.541 101.397 330.706 104.451 333.631 106.773C336.556 109.096 340.284 110.257 344.815 110.257Z" fill="#C5F8FF"/>
<path d="M3.47951 206L4.30451 161.45H10.4095L18.2745 197.585L26.1945 161.45H32.2445L33.0695 206H28.0645L27.5695 173.66L20.0345 206H16.5145L9.03451 173.66L8.53951 206H3.47951ZM45.1231 206.44C43.8764 206.44 42.7764 206.092 41.8231 205.395C40.8698 204.662 40.1181 203.745 39.5681 202.645C39.0181 201.508 38.7431 200.317 38.7431 199.07C38.7431 197.09 39.0731 195.422 39.7331 194.065C40.3931 192.708 41.2914 191.572 42.4281 190.655C43.6014 189.702 44.9398 188.877 46.4431 188.18C47.9831 187.483 49.5964 186.805 51.2831 186.145V183.89C51.2831 182.607 51.2098 181.543 51.0631 180.7C50.9164 179.857 50.6048 179.233 50.1281 178.83C49.6881 178.39 49.0098 178.17 48.0931 178.17C47.2864 178.17 46.6264 178.353 46.1131 178.72C45.6364 179.087 45.2881 179.618 45.0681 180.315C44.8481 180.975 44.7381 181.763 44.7381 182.68V184.275L38.9081 184.055C38.9814 180.535 39.7881 177.95 41.3281 176.3C42.8681 174.613 45.2514 173.77 48.4781 173.77C51.6314 173.77 53.8681 174.632 55.1881 176.355C56.5081 178.078 57.1681 180.572 57.1681 183.835V198.355C57.1681 199.345 57.1864 200.298 57.2231 201.215C57.2964 202.132 57.3698 202.993 57.4431 203.8C57.5531 204.57 57.6448 205.303 57.7181 206H52.3281C52.2181 205.413 52.0714 204.68 51.8881 203.8C51.7414 202.883 51.6314 202.058 51.5581 201.325C51.1914 202.572 50.4764 203.745 49.4131 204.845C48.3864 205.908 46.9564 206.44 45.1231 206.44ZM47.4331 201.38C48.0198 201.38 48.5698 201.215 49.0831 200.885C49.5964 200.555 50.0548 200.188 50.4581 199.785C50.8614 199.345 51.1364 198.997 51.2831 198.74V189.72C50.3664 190.233 49.5048 190.747 48.6981 191.26C47.8914 191.773 47.1764 192.323 46.5531 192.91C45.9664 193.46 45.4898 194.102 45.1231 194.835C44.7931 195.532 44.6281 196.338 44.6281 197.255C44.6281 198.538 44.8664 199.547 45.3431 200.28C45.8198 201.013 46.5164 201.38 47.4331 201.38ZM62.8211 206V174.21H68.7061V177.345C69.7694 176.355 70.9427 175.512 72.2261 174.815C73.5094 174.118 74.9211 173.77 76.4611 173.77C77.7444 173.77 78.7161 174.1 79.3761 174.76C80.0727 175.42 80.5494 176.245 80.8061 177.235C81.0994 178.225 81.2461 179.233 81.2461 180.26V206H75.3611V181.965C75.3611 180.828 75.1961 179.948 74.8661 179.325C74.5361 178.702 73.8577 178.39 72.8311 178.39C72.1711 178.39 71.4744 178.592 70.7411 178.995C70.0444 179.362 69.3661 179.82 68.7061 180.37V206H62.8211ZM92.711 206.44C91.4643 206.44 90.3643 206.092 89.411 205.395C88.4577 204.662 87.706 203.745 87.156 202.645C86.606 201.508 86.331 200.317 86.331 199.07C86.331 197.09 86.661 195.422 87.321 194.065C87.981 192.708 88.8793 191.572 90.016 190.655C91.1893 189.702 92.5277 188.877 94.031 188.18C95.571 187.483 97.1843 186.805 98.871 186.145V183.89C98.871 182.607 98.7977 181.543 98.651 180.7C98.5043 179.857 98.1927 179.233 97.716 178.83C97.276 178.39 96.5977 178.17 95.681 178.17C94.8743 178.17 94.2143 178.353 93.701 178.72C93.2243 179.087 92.876 179.618 92.656 180.315C92.436 180.975 92.326 181.763 92.326 182.68V184.275L86.496 184.055C86.5693 180.535 87.376 177.95 88.916 176.3C90.456 174.613 92.8393 173.77 96.066 173.77C99.2193 173.77 101.456 174.632 102.776 176.355C104.096 178.078 104.756 180.572 104.756 183.835V198.355C104.756 199.345 104.774 200.298 104.811 201.215C104.884 202.132 104.958 202.993 105.031 203.8C105.141 204.57 105.233 205.303 105.306 206H99.916C99.806 205.413 99.6593 204.68 99.476 203.8C99.3293 202.883 99.2193 202.058 99.146 201.325C98.7793 202.572 98.0643 203.745 97.001 204.845C95.9743 205.908 94.5443 206.44 92.711 206.44ZM95.021 201.38C95.6077 201.38 96.1577 201.215 96.671 200.885C97.1843 200.555 97.6427 200.188 98.046 199.785C98.4493 199.345 98.7243 198.997 98.871 198.74V189.72C97.9543 190.233 97.0927 190.747 96.286 191.26C95.4793 191.773 94.7643 192.323 94.141 192.91C93.5543 193.46 93.0777 194.102 92.711 194.835C92.381 195.532 92.216 196.338 92.216 197.255C92.216 198.538 92.4543 199.547 92.931 200.28C93.4077 201.013 94.1043 201.38 95.021 201.38ZM118.659 215.845C116.752 215.845 115.029 215.643 113.489 215.24C111.949 214.837 110.739 214.195 109.859 213.315C108.979 212.435 108.539 211.28 108.539 209.85C108.539 208.823 108.759 207.925 109.199 207.155C109.639 206.385 110.207 205.725 110.904 205.175C111.601 204.588 112.334 204.112 113.104 203.745C112.077 203.452 111.307 202.993 110.794 202.37C110.281 201.71 110.024 201.032 110.024 200.335C110.024 199.162 110.336 198.153 110.959 197.31C111.582 196.467 112.444 195.55 113.544 194.56C112.334 193.643 111.417 192.47 110.794 191.04C110.171 189.61 109.859 187.63 109.859 185.1C109.859 182.607 110.189 180.535 110.849 178.885C111.546 177.198 112.554 175.933 113.874 175.09C115.231 174.21 116.881 173.77 118.824 173.77C120.547 173.77 121.922 174.063 122.949 174.65C124.012 175.237 124.819 176.117 125.369 177.29C125.552 176.997 126.047 176.502 126.854 175.805C127.661 175.072 128.596 174.467 129.659 173.99L130.539 173.605L132.024 177.4C131.547 177.473 130.906 177.657 130.099 177.95C129.329 178.207 128.596 178.482 127.899 178.775C127.239 179.032 126.817 179.252 126.634 179.435C126.891 180.058 127.111 180.957 127.294 182.13C127.514 183.303 127.624 184.348 127.624 185.265C127.624 187.428 127.349 189.335 126.799 190.985C126.249 192.635 125.332 193.937 124.049 194.89C122.802 195.807 121.061 196.265 118.824 196.265C118.347 196.265 117.834 196.228 117.284 196.155C116.734 196.082 116.239 195.99 115.799 195.88C115.579 196.21 115.341 196.595 115.084 197.035C114.864 197.475 114.754 197.897 114.754 198.3C114.754 198.703 114.956 199.033 115.359 199.29C115.799 199.51 116.477 199.657 117.394 199.73L122.344 200.17C124.837 200.39 126.689 201.142 127.899 202.425C129.109 203.708 129.714 205.542 129.714 207.925C129.714 209.648 129.311 211.097 128.504 212.27C127.697 213.48 126.469 214.378 124.819 214.965C123.206 215.552 121.152 215.845 118.659 215.845ZM119.099 211.225C121.189 211.225 122.729 210.968 123.719 210.455C124.709 209.978 125.204 209.19 125.204 208.09C125.204 207.43 125.076 206.88 124.819 206.44C124.599 206 124.177 205.652 123.554 205.395C122.931 205.138 122.032 204.955 120.859 204.845L115.854 204.405C115.451 204.808 115.066 205.212 114.699 205.615C114.332 206.018 114.039 206.44 113.819 206.88C113.599 207.357 113.489 207.852 113.489 208.365C113.489 209.318 113.892 210.033 114.699 210.51C115.506 210.987 116.972 211.225 119.099 211.225ZM118.824 192.14C119.667 192.14 120.327 191.993 120.804 191.7C121.317 191.37 121.702 190.912 121.959 190.325C122.216 189.702 122.381 188.95 122.454 188.07C122.564 187.19 122.619 186.2 122.619 185.1C122.619 184 122.564 183.01 122.454 182.13C122.381 181.213 122.216 180.443 121.959 179.82C121.739 179.16 121.372 178.665 120.859 178.335C120.382 178.005 119.722 177.84 118.879 177.84C118.072 177.84 117.394 178.005 116.844 178.335C116.331 178.665 115.946 179.142 115.689 179.765C115.432 180.352 115.249 181.103 115.139 182.02C115.029 182.9 114.974 183.927 114.974 185.1C114.974 186.09 115.011 187.025 115.084 187.905C115.194 188.748 115.377 189.482 115.634 190.105C115.927 190.728 116.331 191.223 116.844 191.59C117.357 191.957 118.017 192.14 118.824 192.14ZM142.895 206.44C140.402 206.44 138.477 205.963 137.12 205.01C135.764 204.02 134.81 202.59 134.26 200.72C133.747 198.813 133.49 196.485 133.49 193.735V186.475C133.49 183.652 133.765 181.305 134.315 179.435C134.865 177.565 135.819 176.153 137.175 175.2C138.569 174.247 140.475 173.77 142.895 173.77C145.572 173.77 147.534 174.32 148.78 175.42C150.064 176.52 150.907 178.115 151.31 180.205C151.714 182.258 151.915 184.733 151.915 187.63V190.215H139.375V196.595C139.375 197.878 139.485 198.923 139.705 199.73C139.962 200.537 140.347 201.142 140.86 201.545C141.41 201.912 142.107 202.095 142.95 202.095C143.83 202.095 144.49 201.893 144.93 201.49C145.407 201.05 145.719 200.445 145.865 199.675C146.049 198.868 146.14 197.933 146.14 196.87V194.945H151.86V196.155C151.86 199.345 151.182 201.857 149.825 203.69C148.469 205.523 146.159 206.44 142.895 206.44ZM139.375 187.025H146.14V184.165C146.14 182.845 146.067 181.745 145.92 180.865C145.774 179.948 145.462 179.27 144.985 178.83C144.545 178.353 143.83 178.115 142.84 178.115C141.887 178.115 141.154 178.335 140.64 178.775C140.164 179.215 139.834 179.967 139.65 181.03C139.467 182.057 139.375 183.487 139.375 185.32V187.025ZM173.498 206L168.383 174.21H173.223L176.523 197.64L180.758 174.21H185.268L189.503 197.53L192.803 174.21H197.643L192.363 206H187.413L183.068 183.56L178.778 206H173.498ZM202.312 206V161.45H208.197V177.51C209.261 176.483 210.452 175.603 211.772 174.87C213.092 174.137 214.559 173.77 216.172 173.77C217.419 173.77 218.372 174.1 219.032 174.76C219.729 175.42 220.206 176.245 220.462 177.235C220.756 178.225 220.902 179.233 220.902 180.26V206H215.017V181.965C215.017 180.828 214.852 179.948 214.522 179.325C214.192 178.702 213.514 178.39 212.487 178.39C211.791 178.39 211.057 178.592 210.287 178.995C209.554 179.398 208.857 179.893 208.197 180.48V206H202.312ZM232.359 206.44C231.113 206.44 230.013 206.092 229.059 205.395C228.106 204.662 227.354 203.745 226.804 202.645C226.254 201.508 225.979 200.317 225.979 199.07C225.979 197.09 226.309 195.422 226.969 194.065C227.629 192.708 228.528 191.572 229.664 190.655C230.838 189.702 232.176 188.877 233.679 188.18C235.219 187.483 236.833 186.805 238.519 186.145V183.89C238.519 182.607 238.446 181.543 238.299 180.7C238.153 179.857 237.841 179.233 237.364 178.83C236.924 178.39 236.246 178.17 235.329 178.17C234.523 178.17 233.863 178.353 233.349 178.72C232.873 179.087 232.524 179.618 232.304 180.315C232.084 180.975 231.974 181.763 231.974 182.68V184.275L226.144 184.055C226.218 180.535 227.024 177.95 228.564 176.3C230.104 174.613 232.488 173.77 235.714 173.77C238.868 173.77 241.104 174.632 242.424 176.355C243.744 178.078 244.404 180.572 244.404 183.835V198.355C244.404 199.345 244.423 200.298 244.459 201.215C244.533 202.132 244.606 202.993 244.679 203.8C244.789 204.57 244.881 205.303 244.954 206H239.564C239.454 205.413 239.308 204.68 239.124 203.8C238.978 202.883 238.868 202.058 238.794 201.325C238.428 202.572 237.713 203.745 236.649 204.845C235.623 205.908 234.193 206.44 232.359 206.44ZM234.669 201.38C235.256 201.38 235.806 201.215 236.319 200.885C236.833 200.555 237.291 200.188 237.694 199.785C238.098 199.345 238.373 198.997 238.519 198.74V189.72C237.603 190.233 236.741 190.747 235.934 191.26C235.128 191.773 234.413 192.323 233.789 192.91C233.203 193.46 232.726 194.102 232.359 194.835C232.029 195.532 231.864 196.338 231.864 197.255C231.864 198.538 232.103 199.547 232.579 200.28C233.056 201.013 233.753 201.38 234.669 201.38ZM258.098 206.44C256.448 206.44 255.109 206.128 254.083 205.505C253.093 204.882 252.359 204.002 251.883 202.865C251.443 201.728 251.223 200.39 251.223 198.85V178.115H247.868V174.21H251.223V164.915H257.108V174.21H262.223V178.115H257.108V198.465C257.108 199.712 257.309 200.61 257.713 201.16C258.116 201.673 258.886 201.93 260.023 201.93C260.316 201.93 260.646 201.912 261.013 201.875C261.416 201.838 261.801 201.802 262.168 201.765V206.11C261.434 206.22 260.756 206.293 260.133 206.33C259.509 206.403 258.831 206.44 258.098 206.44ZM287.585 206.44C285.935 206.44 284.597 206.128 283.57 205.505C282.58 204.882 281.847 204.002 281.37 202.865C280.93 201.728 280.71 200.39 280.71 198.85V178.115H277.355V174.21H280.71V164.915H286.595V174.21H291.71V178.115H286.595V198.465C286.595 199.712 286.797 200.61 287.2 201.16C287.603 201.673 288.373 201.93 289.51 201.93C289.803 201.93 290.133 201.912 290.5 201.875C290.903 201.838 291.288 201.802 291.655 201.765V206.11C290.922 206.22 290.243 206.293 289.62 206.33C288.997 206.403 288.318 206.44 287.585 206.44ZM304.779 206.44C302.432 206.44 300.581 205.963 299.224 205.01C297.867 204.057 296.896 202.7 296.309 200.94C295.759 199.18 295.484 197.108 295.484 194.725V185.485C295.484 183.102 295.759 181.03 296.309 179.27C296.896 177.51 297.867 176.153 299.224 175.2C300.581 174.247 302.432 173.77 304.779 173.77C307.126 173.77 308.959 174.247 310.279 175.2C311.636 176.153 312.589 177.51 313.139 179.27C313.726 181.03 314.019 183.102 314.019 185.485V194.725C314.019 197.108 313.726 199.18 313.139 200.94C312.589 202.7 311.636 204.057 310.279 205.01C308.959 205.963 307.126 206.44 304.779 206.44ZM304.779 202.095C305.916 202.095 306.704 201.765 307.144 201.105C307.621 200.445 307.896 199.583 307.969 198.52C308.079 197.42 308.134 196.283 308.134 195.11V185.155C308.134 183.945 308.079 182.808 307.969 181.745C307.896 180.682 307.621 179.82 307.144 179.16C306.704 178.463 305.916 178.115 304.779 178.115C303.642 178.115 302.836 178.463 302.359 179.16C301.882 179.82 301.589 180.682 301.479 181.745C301.406 182.808 301.369 183.945 301.369 185.155V195.11C301.369 196.283 301.406 197.42 301.479 198.52C301.589 199.583 301.882 200.445 302.359 201.105C302.836 201.765 303.642 202.095 304.779 202.095ZM339.337 206.44C336.66 206.44 334.662 205.468 333.342 203.525C332.022 201.545 331.362 198.208 331.362 193.515V187.355C331.362 184.935 331.563 182.698 331.967 180.645C332.37 178.555 333.122 176.887 334.222 175.64C335.358 174.393 337.008 173.77 339.172 173.77C340.235 173.77 341.207 174.008 342.087 174.485C342.967 174.962 343.755 175.548 344.452 176.245V161.45H350.337V206H344.452V203.965C343.755 204.698 342.985 205.303 342.142 205.78C341.335 206.22 340.4 206.44 339.337 206.44ZM340.822 201.82C341.372 201.82 341.958 201.728 342.582 201.545C343.205 201.325 343.828 201.013 344.452 200.61V179.765C343.938 179.398 343.37 179.087 342.747 178.83C342.123 178.537 341.445 178.39 340.712 178.39C339.355 178.39 338.438 179.05 337.962 180.37C337.485 181.653 337.247 183.212 337.247 185.045V194.01C337.247 195.477 337.32 196.815 337.467 198.025C337.65 199.198 337.998 200.133 338.512 200.83C339.025 201.49 339.795 201.82 340.822 201.82ZM365.043 206.44C362.696 206.44 360.844 205.963 359.488 205.01C358.131 204.057 357.159 202.7 356.573 200.94C356.023 199.18 355.748 197.108 355.748 194.725V185.485C355.748 183.102 356.023 181.03 356.573 179.27C357.159 177.51 358.131 176.153 359.488 175.2C360.844 174.247 362.696 173.77 365.043 173.77C367.389 173.77 369.223 174.247 370.543 175.2C371.899 176.153 372.853 177.51 373.403 179.27C373.989 181.03 374.283 183.102 374.283 185.485V194.725C374.283 197.108 373.989 199.18 373.403 200.94C372.853 202.7 371.899 204.057 370.543 205.01C369.223 205.963 367.389 206.44 365.043 206.44ZM365.043 202.095C366.179 202.095 366.968 201.765 367.408 201.105C367.884 200.445 368.159 199.583 368.233 198.52C368.343 197.42 368.398 196.283 368.398 195.11V185.155C368.398 183.945 368.343 182.808 368.233 181.745C368.159 180.682 367.884 179.82 367.408 179.16C366.968 178.463 366.179 178.115 365.043 178.115C363.906 178.115 363.099 178.463 362.623 179.16C362.146 179.82 361.853 180.682 361.743 181.745C361.669 182.808 361.633 183.945 361.633 185.155V195.11C361.633 196.283 361.669 197.42 361.743 198.52C361.853 199.583 362.146 200.445 362.623 201.105C363.099 201.765 363.906 202.095 365.043 202.095ZM392.23 206V174.21H398.115V177.345C399.179 176.355 400.352 175.512 401.635 174.815C402.919 174.118 404.33 173.77 405.87 173.77C407.154 173.77 408.125 174.1 408.785 174.76C409.482 175.42 409.959 176.245 410.215 177.235C410.509 178.225 410.655 179.233 410.655 180.26V206H404.77V181.965C404.77 180.828 404.605 179.948 404.275 179.325C403.945 178.702 403.267 178.39 402.24 178.39C401.58 178.39 400.884 178.592 400.15 178.995C399.454 179.362 398.775 179.82 398.115 180.37V206H392.23ZM425.2 206.44C422.707 206.44 420.782 205.963 419.425 205.01C418.069 204.02 417.115 202.59 416.565 200.72C416.052 198.813 415.795 196.485 415.795 193.735V186.475C415.795 183.652 416.07 181.305 416.62 179.435C417.17 177.565 418.124 176.153 419.48 175.2C420.874 174.247 422.78 173.77 425.2 173.77C427.877 173.77 429.839 174.32 431.085 175.42C432.369 176.52 433.212 178.115 433.615 180.205C434.019 182.258 434.22 184.733 434.22 187.63V190.215H421.68V196.595C421.68 197.878 421.79 198.923 422.01 199.73C422.267 200.537 422.652 201.142 423.165 201.545C423.715 201.912 424.412 202.095 425.255 202.095C426.135 202.095 426.795 201.893 427.235 201.49C427.712 201.05 428.024 200.445 428.17 199.675C428.354 198.868 428.445 197.933 428.445 196.87V194.945H434.165V196.155C434.165 199.345 433.487 201.857 432.13 203.69C430.774 205.523 428.464 206.44 425.2 206.44ZM421.68 187.025H428.445V184.165C428.445 182.845 428.372 181.745 428.225 180.865C428.079 179.948 427.767 179.27 427.29 178.83C426.85 178.353 426.135 178.115 425.145 178.115C424.192 178.115 423.459 178.335 422.945 178.775C422.469 179.215 422.139 179.967 421.955 181.03C421.772 182.057 421.68 183.487 421.68 185.32V187.025ZM437.075 206L444.225 189.28L437.24 174.21H442.85L447.525 184.275L451.65 174.21H457.425L450.165 189.995L457.535 206H451.925L446.92 195.22L442.63 206H437.075ZM469.397 206.44C467.747 206.44 466.408 206.128 465.382 205.505C464.392 204.882 463.658 204.002 463.182 202.865C462.742 201.728 462.522 200.39 462.522 198.85V178.115H459.167V174.21H462.522V164.915H468.407V174.21H473.522V178.115H468.407V198.465C468.407 199.712 468.608 200.61 469.012 201.16C469.415 201.673 470.185 201.93 471.322 201.93C471.615 201.93 471.945 201.912 472.312 201.875C472.715 201.838 473.1 201.802 473.467 201.765V206.11C472.733 206.22 472.055 206.293 471.432 206.33C470.808 206.403 470.13 206.44 469.397 206.44Z" fill="#C5F8FF"/>
<path d="M318.883 39.3136C317.71 39.3136 316.646 39.0928 315.691 38.6512C314.735 38.2015 313.977 37.5552 313.415 36.7121C312.853 35.861 312.571 34.8332 312.571 33.6288C312.571 32.569 312.78 31.7098 313.198 31.0514C313.615 30.385 314.173 29.8631 314.872 29.4857C315.57 29.1083 316.341 28.8273 317.184 28.6426C318.035 28.4499 318.891 28.2974 319.75 28.185C320.874 28.0404 321.785 27.932 322.484 27.8598C323.19 27.7795 323.704 27.647 324.025 27.4623C324.355 27.2776 324.519 26.9565 324.519 26.4988V26.4024C324.519 25.2141 324.194 24.2907 323.544 23.6323C322.901 22.9739 321.926 22.6447 320.617 22.6447C319.26 22.6447 318.196 22.9418 317.425 23.536C316.654 24.1301 316.112 24.7645 315.799 25.4389L313.101 24.4754C313.583 23.3513 314.226 22.4761 315.028 21.8498C315.839 21.2155 316.723 20.7739 317.678 20.525C318.642 20.268 319.589 20.1396 320.521 20.1396C321.115 20.1396 321.797 20.2118 322.568 20.3564C323.347 20.4929 324.098 20.7779 324.82 21.2115C325.551 21.6451 326.157 22.2995 326.639 23.1747C327.121 24.0499 327.361 25.2221 327.361 26.6915V38.88H324.519V36.3749H324.375C324.182 36.7763 323.861 37.2059 323.411 37.6636C322.961 38.1212 322.363 38.5107 321.617 38.8318C320.87 39.153 319.958 39.3136 318.883 39.3136ZM319.316 36.7603C320.44 36.7603 321.388 36.5395 322.158 36.0978C322.937 35.6562 323.523 35.0862 323.917 34.3876C324.318 33.6891 324.519 32.9544 324.519 32.1836V29.5821C324.399 29.7266 324.134 29.8591 323.724 29.9795C323.323 30.0919 322.857 30.1923 322.327 30.2806C321.805 30.3609 321.295 30.4332 320.798 30.4974C320.308 30.5536 319.91 30.6018 319.605 30.6419C318.866 30.7383 318.176 30.8948 317.534 31.1116C316.899 31.3204 316.385 31.6376 315.992 32.0631C315.607 32.4806 315.414 33.0507 315.414 33.7734C315.414 34.761 315.779 35.5077 316.51 36.0135C317.249 36.5114 318.184 36.7603 319.316 36.7603ZM332.549 45.8173V20.3805H335.295V23.3192H335.633C335.841 22.998 336.13 22.5885 336.5 22.0907C336.877 21.5849 337.415 21.1352 338.114 20.7418C338.82 20.3403 339.776 20.1396 340.98 20.1396C342.538 20.1396 343.911 20.529 345.099 21.3078C346.288 22.0867 347.215 23.1907 347.881 24.6199C348.548 26.0492 348.881 27.7353 348.881 29.6784C348.881 31.6376 348.548 33.3358 347.881 34.773C347.215 36.2022 346.292 37.3103 345.111 38.0971C343.931 38.876 342.57 39.2654 341.028 39.2654C339.84 39.2654 338.889 39.0687 338.174 38.6753C337.459 38.2738 336.909 37.8201 336.524 37.3143C336.139 36.8004 335.841 36.3749 335.633 36.0376H335.392V45.8173H332.549ZM335.344 29.6302C335.344 31.0273 335.548 32.2598 335.958 33.3277C336.367 34.3876 336.966 35.2186 337.752 35.8208C338.539 36.415 339.503 36.7121 340.643 36.7121C341.831 36.7121 342.823 36.3989 343.618 35.7727C344.421 35.1383 345.023 34.2872 345.424 33.2193C345.834 32.1434 346.039 30.947 346.039 29.6302C346.039 28.3295 345.838 27.1572 345.436 26.1134C345.043 25.0615 344.445 24.2305 343.642 23.6203C342.847 23.002 341.847 22.6929 340.643 22.6929C339.487 22.6929 338.515 22.986 337.728 23.5721C336.941 24.1502 336.347 24.9612 335.946 26.005C335.544 27.0408 335.344 28.2492 335.344 29.6302ZM353.217 45.8173V20.3805H355.963V23.3192H356.3C356.509 22.998 356.798 22.5885 357.167 22.0907C357.545 21.5849 358.083 21.1352 358.781 20.7418C359.488 20.3403 360.443 20.1396 361.648 20.1396C363.205 20.1396 364.578 20.529 365.767 21.3078C366.955 22.0867 367.882 23.1907 368.549 24.6199C369.215 26.0492 369.549 27.7353 369.549 29.6784C369.549 31.6376 369.215 33.3358 368.549 34.773C367.882 36.2022 366.959 37.3103 365.779 38.0971C364.598 38.876 363.237 39.2654 361.696 39.2654C360.508 39.2654 359.556 39.0687 358.841 38.6753C358.127 38.2738 357.577 37.8201 357.191 37.3143C356.806 36.8004 356.509 36.3749 356.3 36.0376H356.059V45.8173H353.217ZM356.011 29.6302C356.011 31.0273 356.216 32.2598 356.625 33.3277C357.035 34.3876 357.633 35.2186 358.42 35.8208C359.207 36.415 360.17 36.7121 361.31 36.7121C362.499 36.7121 363.49 36.3989 364.285 35.7727C365.088 35.1383 365.69 34.2872 366.092 33.2193C366.501 32.1434 366.706 30.947 366.706 29.6302C366.706 28.3295 366.505 27.1572 366.104 26.1134C365.711 25.0615 365.112 24.2305 364.309 23.6203C363.514 23.002 362.515 22.6929 361.31 22.6929C360.154 22.6929 359.183 22.986 358.396 23.5721C357.609 24.1502 357.015 24.9612 356.613 26.005C356.212 27.0408 356.011 28.2492 356.011 29.6302Z" fill="#F39530"/>
</svg>
