<svg width="65" height="33" viewBox="0 0 65 33" fill="none" xmlns="http://www.w3.org/2000/svg">
<path d="M1.46587 8.33111V6.20466H16.3124V8.33111H10.0877V26H7.69058V8.33111H1.46587ZM23.581 26.3093C22.2407 26.3093 21.0647 25.9903 20.053 25.3524C19.0478 24.7145 18.2616 23.822 17.6946 22.675C17.134 21.528 16.8537 20.1877 16.8537 18.6541C16.8537 17.1076 17.134 15.7576 17.6946 14.6041C18.2616 13.4507 19.0478 12.555 20.053 11.9171C21.0647 11.2791 22.2407 10.9602 23.581 10.9602C24.9213 10.9602 26.0941 11.2791 27.0993 11.9171C28.111 12.555 28.8971 13.4507 29.4577 14.6041C30.0248 15.7576 30.3083 17.1076 30.3083 18.6541C30.3083 20.1877 30.0248 21.528 29.4577 22.675C28.8971 23.822 28.111 24.7145 27.0993 25.3524C26.0941 25.9903 24.9213 26.3093 23.581 26.3093ZM23.581 24.2602C24.5991 24.2602 25.4368 23.9992 26.0941 23.4773C26.7513 22.9553 27.2378 22.269 27.5536 21.4185C27.8693 20.5679 28.0272 19.6464 28.0272 18.6541C28.0272 17.6617 27.8693 16.737 27.5536 15.88C27.2378 15.023 26.7513 14.3303 26.0941 13.8019C25.4368 13.2735 24.5991 13.0093 23.581 13.0093C22.5629 13.0093 21.7252 13.2735 21.0679 13.8019C20.4106 14.3303 19.9241 15.023 19.6084 15.88C19.2926 16.737 19.1348 17.6617 19.1348 18.6541C19.1348 19.6464 19.2926 20.5679 19.6084 21.4185C19.9241 22.269 20.4106 22.9553 21.0679 23.4773C21.7252 23.9992 22.5629 24.2602 23.581 24.2602ZM39.3965 26.3093C38.1593 26.3093 37.067 25.9968 36.1198 25.3717C35.1726 24.7402 34.4315 23.851 33.8967 22.704C33.3619 21.5506 33.0944 20.1877 33.0944 18.6154C33.0944 17.056 33.3619 15.7028 33.8967 14.5558C34.4315 13.4088 35.1758 12.5228 36.1295 11.8978C37.0831 11.2727 38.185 10.9602 39.4351 10.9602C40.4017 10.9602 41.1653 11.1213 41.7259 11.4435C42.293 11.7592 42.7247 12.1201 43.0211 12.526C43.324 12.9255 43.5592 13.2542 43.7267 13.5119H43.92V6.20466H46.2011V26H43.9973V23.7189H43.7267C43.5592 23.9895 43.3207 24.3311 43.0114 24.7435C42.7021 25.1494 42.2607 25.5135 41.6872 25.8357C41.1137 26.1514 40.3502 26.3093 39.3965 26.3093ZM39.7058 24.2602C40.6208 24.2602 41.394 24.0218 42.0255 23.5449C42.657 23.0616 43.1371 22.3947 43.4657 21.5441C43.7944 20.6871 43.9587 19.698 43.9587 18.5767C43.9587 17.4684 43.7976 16.4986 43.4754 15.6674C43.1532 14.8297 42.6764 14.1789 42.0449 13.7149C41.4134 13.2445 40.6337 13.0093 39.7058 13.0093C38.7392 13.0093 37.9337 13.2574 37.2894 13.7536C36.6514 14.2433 36.1714 14.9102 35.8492 15.7544C35.5334 16.5921 35.3755 17.5329 35.3755 18.5767C35.3755 19.6335 35.5366 20.5937 35.8588 21.4571C36.1875 22.3141 36.6707 22.9972 37.3087 23.5063C37.9531 24.0089 38.7521 24.2602 39.7058 24.2602ZM56.7271 26.3093C55.3868 26.3093 54.2108 25.9903 53.1991 25.3524C52.1939 24.7145 51.4077 23.822 50.8407 22.675C50.28 21.528 49.9997 20.1877 49.9997 18.6541C49.9997 17.1076 50.28 15.7576 50.8407 14.6041C51.4077 13.4507 52.1939 12.555 53.1991 11.9171C54.2108 11.2791 55.3868 10.9602 56.7271 10.9602C58.0674 10.9602 59.2401 11.2791 60.2454 11.9171C61.2571 12.555 62.0432 13.4507 62.6038 14.6041C63.1709 15.7576 63.4544 17.1076 63.4544 18.6541C63.4544 20.1877 63.1709 21.528 62.6038 22.675C62.0432 23.822 61.2571 24.7145 60.2454 25.3524C59.2401 25.9903 58.0674 26.3093 56.7271 26.3093ZM56.7271 24.2602C57.7452 24.2602 58.5829 23.9992 59.2401 23.4773C59.8974 22.9553 60.3839 22.269 60.6997 21.4185C61.0154 20.5679 61.1733 19.6464 61.1733 18.6541C61.1733 17.6617 61.0154 16.737 60.6997 15.88C60.3839 15.023 59.8974 14.3303 59.2401 13.8019C58.5829 13.2735 57.7452 13.0093 56.7271 13.0093C55.7089 13.0093 54.8712 13.2735 54.214 13.8019C53.5567 14.3303 53.0702 15.023 52.7545 15.88C52.4387 16.737 52.2808 17.6617 52.2808 18.6541C52.2808 19.6464 52.4387 20.5679 52.7545 21.4185C53.0702 22.269 53.5567 22.9553 54.214 23.4773C54.8712 23.9992 55.7089 24.2602 56.7271 24.2602Z" fill="#C5F8FF"/>
<path d="M50.9045 8.41872C50.641 8.41872 50.402 8.3691 50.1873 8.26987C49.9726 8.16883 49.802 8.02359 49.6757 7.83414C49.5495 7.64289 49.4863 7.41194 49.4863 7.1413C49.4863 6.90314 49.5332 6.71008 49.627 6.56213C49.7209 6.41238 49.8463 6.2951 50.0032 6.2103C50.1602 6.1255 50.3334 6.06235 50.5229 6.02085C50.7141 5.97755 50.9063 5.94327 51.0993 5.91801C51.3519 5.88553 51.5567 5.86118 51.7137 5.84494C51.8724 5.8269 51.9879 5.79713 52.0601 5.75563C52.1341 5.71413 52.171 5.64196 52.171 5.53912V5.51746C52.171 5.25043 52.098 5.04294 51.9518 4.89499C51.8075 4.74704 51.5883 4.67307 51.2942 4.67307C50.9893 4.67307 50.7502 4.73983 50.577 4.87334C50.4038 5.00686 50.282 5.14939 50.2116 5.30095L49.6054 5.08444C49.7136 4.83184 49.858 4.63518 50.0384 4.49445C50.2206 4.35191 50.4191 4.25268 50.6338 4.19674C50.8503 4.13901 51.0632 4.11014 51.2725 4.11014C51.406 4.11014 51.5594 4.12638 51.7326 4.15885C51.9076 4.18953 52.0763 4.25358 52.2387 4.35101C52.4029 4.44844 52.5391 4.59549 52.6474 4.79215C52.7556 4.98882 52.8098 5.25224 52.8098 5.58242V8.32129H52.171V7.75836H52.1386C52.0953 7.84857 52.0231 7.9451 51.9221 8.04794C51.821 8.15079 51.6866 8.23829 51.5188 8.31046C51.351 8.38263 51.1462 8.41872 50.9045 8.41872ZM51.0019 7.84496C51.2545 7.84496 51.4674 7.79535 51.6406 7.69611C51.8156 7.59688 51.9473 7.46877 52.0357 7.3118C52.1259 7.15483 52.171 6.98974 52.171 6.81653V6.23195C52.144 6.26443 52.0844 6.2942 51.9924 6.32126C51.9022 6.34652 51.7976 6.36908 51.6785 6.38892C51.5612 6.40697 51.4466 6.4232 51.3348 6.43764C51.2247 6.45027 51.1354 6.46109 51.0668 6.47012C50.9008 6.49177 50.7457 6.52695 50.6013 6.57566C50.4588 6.62258 50.3433 6.69384 50.2549 6.78947C50.1683 6.88329 50.125 7.01139 50.125 7.17378C50.125 7.3957 50.2071 7.5635 50.3713 7.67717C50.5373 7.78903 50.7475 7.84496 51.0019 7.84496ZM53.9755 9.88017V4.16427H54.5926V4.82463H54.6684C54.7153 4.75246 54.7802 4.66044 54.8632 4.54858C54.948 4.43491 55.0689 4.33387 55.2259 4.24546C55.3847 4.15525 55.5994 4.11014 55.87 4.11014C56.22 4.11014 56.5286 4.19765 56.7956 4.37266C57.0626 4.54767 57.271 4.79576 57.4208 5.11692C57.5705 5.43808 57.6454 5.81697 57.6454 6.2536C57.6454 6.69384 57.5705 7.07545 57.4208 7.39841C57.271 7.71957 57.0635 7.96856 56.7983 8.14537C56.5331 8.32039 56.2273 8.40789 55.8808 8.40789C55.6138 8.40789 55.4 8.36369 55.2394 8.27528C55.0788 8.18507 54.9552 8.08313 54.8686 7.96946C54.782 7.85398 54.7153 7.75836 54.6684 7.68258H54.6142V9.88017H53.9755ZM54.6034 6.24278C54.6034 6.55672 54.6494 6.83367 54.7414 7.07364C54.8335 7.3118 54.9679 7.49855 55.1447 7.63386C55.3215 7.76738 55.538 7.83414 55.7942 7.83414C56.0613 7.83414 56.2841 7.76377 56.4627 7.62304C56.6431 7.4805 56.7785 7.28925 56.8687 7.04928C56.9607 6.80751 57.0067 6.53868 57.0067 6.24278C57.0067 5.95049 56.9616 5.68707 56.8714 5.45251C56.783 5.21615 56.6485 5.02941 56.4681 4.89229C56.2895 4.75336 56.0649 4.68389 55.7942 4.68389C55.5344 4.68389 55.3161 4.74975 55.1393 4.88146C54.9625 5.01137 54.829 5.1936 54.7387 5.42815C54.6485 5.6609 54.6034 5.93244 54.6034 6.24278ZM58.6197 9.88017V4.16427H59.2368V4.82463H59.3125C59.3595 4.75246 59.4244 4.66044 59.5074 4.54858C59.5922 4.43491 59.7131 4.33387 59.8701 4.24546C60.0288 4.15525 60.2435 4.11014 60.5142 4.11014C60.8642 4.11014 61.1727 4.19765 61.4398 4.37266C61.7068 4.54767 61.9152 4.79576 62.0649 5.11692C62.2147 5.43808 62.2896 5.81697 62.2896 6.2536C62.2896 6.69384 62.2147 7.07545 62.0649 7.39841C61.9152 7.71957 61.7077 7.96856 61.4425 8.14537C61.1772 8.32039 60.8714 8.40789 60.525 8.40789C60.258 8.40789 60.0442 8.36369 59.8836 8.27528C59.723 8.18507 59.5994 8.08313 59.5128 7.96946C59.4262 7.85398 59.3595 7.75836 59.3125 7.68258H59.2584V9.88017H58.6197ZM59.2476 6.24278C59.2476 6.55672 59.2936 6.83367 59.3856 7.07364C59.4776 7.3118 59.6121 7.49855 59.7889 7.63386C59.9657 7.76738 60.1822 7.83414 60.4384 7.83414C60.7054 7.83414 60.9283 7.76377 61.1069 7.62304C61.2873 7.4805 61.4226 7.28925 61.5128 7.04928C61.6049 6.80751 61.6509 6.53868 61.6509 6.24278C61.6509 5.95049 61.6058 5.68707 61.5155 5.45251C61.4271 5.21615 61.2927 5.02941 61.1123 4.89229C60.9337 4.75336 60.709 4.68389 60.4384 4.68389C60.1786 4.68389 59.9603 4.74975 59.7835 4.88146C59.6066 5.01137 59.4731 5.1936 59.3829 5.42815C59.2927 5.6609 59.2476 5.93244 59.2476 6.24278Z" fill="#F39530"/>
</svg>
